<svg xmlns="http://www.w3.org/2000/svg" xmlns:xlink="http://www.w3.org/1999/xlink" width="320" zoomAndPan="magnify" viewBox="0 0 240 30.000001" height="40" preserveAspectRatio="xMidYMid meet" version="1.2"><defs><clipPath id="c64fadcf93"><path d="M 4 6 L 139.597656 6 L 139.597656 26.460938 L 4 26.460938 Z M 4 6 "/></clipPath></defs><g id="6a36b6d5cc"><path style="fill:none;stroke-width:2;stroke-linecap:butt;stroke-linejoin:miter;stroke:#7ed957;stroke-opacity:1;stroke-miterlimit:4;" d="M 0.000872918 0.997741 L 22.189773 0.997741 " transform="matrix(0.00000000125607,0.719673,-0.719673,0.00000000125607,146.136016,6.464216)"/><g clip-rule="nonzero" clip-path="url(#c64fadcf93)"><path style=" stroke:none;fill-rule:nonzero;fill:#0f4c81;fill-opacity:1;" d="M 10.992188 22.910156 C 15.511719 22.910156 17.707031 20.613281 17.707031 17.925781 C 17.707031 12.027344 8.503906 14.070312 8.503906 11.109375 C 8.503906 10.097656 9.339844 9.269531 11.511719 9.269531 C 12.914062 9.269531 14.429688 9.683594 15.898438 10.535156 L 17.027344 7.710938 C 15.558594 6.769531 13.523438 6.285156 11.535156 6.285156 C 7.035156 6.285156 4.867188 8.558594 4.867188 11.292969 C 4.867188 17.261719 14.066406 15.195312 14.066406 18.203125 C 14.066406 19.191406 13.183594 19.925781 11.015625 19.925781 C 9.117188 19.925781 7.125 19.234375 5.792969 18.25 L 4.550781 21.050781 C 5.949219 22.152344 8.484375 22.910156 10.992188 22.910156 Z M 23.265625 22.632812 L 26.925781 22.632812 L 26.925781 9.59375 L 31.992188 9.59375 L 31.992188 6.5625 L 18.203125 6.5625 L 18.203125 9.59375 L 23.265625 9.59375 Z M 44.988281 22.632812 L 48.832031 22.632812 L 41.757812 6.5625 L 38.140625 6.5625 L 31.085938 22.632812 L 34.839844 22.632812 L 36.242188 19.191406 L 43.589844 19.191406 Z M 37.417969 16.367188 L 39.925781 10.210938 L 42.433594 16.367188 Z M 57.828125 22.910156 C 60.585938 22.910156 62.867188 21.898438 64.359375 20.039062 L 62.007812 17.835938 C 60.945312 19.097656 59.613281 19.742188 58.03125 19.742188 C 55.070312 19.742188 52.964844 17.628906 52.964844 14.597656 C 52.964844 11.566406 55.070312 9.453125 58.03125 9.453125 C 59.613281 9.453125 60.945312 10.097656 62.007812 11.335938 L 64.359375 9.132812 C 62.867188 7.296875 60.585938 6.285156 57.847656 6.285156 C 52.921875 6.285156 49.257812 9.753906 49.257812 14.597656 C 49.257812 19.441406 52.921875 22.910156 57.828125 22.910156 Z M 77.660156 22.632812 L 81.933594 22.632812 L 74.992188 13.726562 L 81.550781 6.5625 L 77.480469 6.5625 L 70.472656 14.070312 L 70.472656 6.5625 L 66.832031 6.5625 L 66.832031 22.632812 L 70.472656 22.632812 L 70.472656 18.570312 L 72.597656 16.320312 Z M 98.476562 22.382812 C 97.730469 23.183594 96.871094 23.574219 95.898438 23.574219 C 95.109375 23.574219 94.429688 23.277344 93.664062 22.449219 C 97.03125 21.347656 99.3125 18.363281 99.3125 14.597656 C 99.3125 9.796875 95.628906 6.285156 90.65625 6.285156 C 85.660156 6.285156 81.996094 9.820312 81.996094 14.597656 C 81.996094 18.960938 85.050781 22.289062 89.390625 22.839844 C 91.832031 25.457031 93.480469 26.332031 95.832031 26.332031 C 97.574219 26.332031 99.066406 25.640625 100.105469 24.355469 Z M 85.707031 14.597656 C 85.707031 11.542969 87.828125 9.453125 90.65625 9.453125 C 93.480469 9.453125 95.605469 11.542969 95.605469 14.597656 C 95.605469 17.652344 93.480469 19.742188 90.65625 19.742188 C 87.828125 19.742188 85.707031 17.652344 85.707031 14.597656 Z M 102.066406 22.632812 L 113.664062 22.632812 L 113.664062 19.601562 L 105.726562 19.601562 L 105.726562 6.5625 L 102.066406 6.5625 Z M 115.234375 8.949219 L 115.234375 11.796875 L 122.761719 14.597656 L 115.234375 17.375 L 115.234375 20.246094 L 125.996094 16.089844 L 125.996094 13.105469 Z M 128.765625 8.949219 L 128.765625 11.796875 L 136.296875 14.597656 L 128.765625 17.375 L 128.765625 20.246094 L 139.527344 16.089844 L 139.527344 13.105469 Z M 128.765625 8.949219 "/></g><g style="fill:#7ed957;fill-opacity:1;"><g transform="translate(151.310577, 19.596776)"><path style="stroke:none" d="M 8.34375 0 L 6.21875 -3.078125 L 3.859375 -3.078125 L 3.859375 0 L 1.3125 0 L 1.3125 -11.03125 L 6.078125 -11.03125 C 7.054688 -11.03125 7.90625 -10.867188 8.625 -10.546875 C 9.351562 -10.222656 9.910156 -9.757812 10.296875 -9.15625 C 10.679688 -8.5625 10.875 -7.851562 10.875 -7.03125 C 10.875 -6.207031 10.675781 -5.5 10.28125 -4.90625 C 9.894531 -4.3125 9.335938 -3.859375 8.609375 -3.546875 L 11.078125 0 Z M 8.296875 -7.03125 C 8.296875 -7.65625 8.09375 -8.128906 7.6875 -8.453125 C 7.289062 -8.785156 6.707031 -8.953125 5.9375 -8.953125 L 3.859375 -8.953125 L 3.859375 -5.109375 L 5.9375 -5.109375 C 6.707031 -5.109375 7.289062 -5.273438 7.6875 -5.609375 C 8.09375 -5.941406 8.296875 -6.414062 8.296875 -7.03125 Z M 8.296875 -7.03125 "/></g></g><g style="fill:#7ed957;fill-opacity:1;"><g transform="translate(162.896823, 19.596776)"><path style="stroke:none" d="M 9.859375 -2.046875 L 9.859375 0 L 1.3125 0 L 1.3125 -11.03125 L 9.65625 -11.03125 L 9.65625 -8.984375 L 3.84375 -8.984375 L 3.84375 -6.59375 L 8.96875 -6.59375 L 8.96875 -4.609375 L 3.84375 -4.609375 L 3.84375 -2.046875 Z M 9.859375 -2.046875 "/></g></g><g style="fill:#7ed957;fill-opacity:1;"><g transform="translate(173.474198, 19.596776)"><path style="stroke:none" d="M 8.765625 -5.6875 L 11.09375 -5.6875 L 11.09375 -1.21875 C 10.5 -0.757812 9.804688 -0.410156 9.015625 -0.171875 C 8.222656 0.0664062 7.429688 0.1875 6.640625 0.1875 C 5.492188 0.1875 4.460938 -0.0546875 3.546875 -0.546875 C 2.628906 -1.035156 1.910156 -1.710938 1.390625 -2.578125 C 0.867188 -3.441406 0.609375 -4.421875 0.609375 -5.515625 C 0.609375 -6.609375 0.867188 -7.585938 1.390625 -8.453125 C 1.910156 -9.328125 2.632812 -10.003906 3.5625 -10.484375 C 4.488281 -10.972656 5.53125 -11.21875 6.6875 -11.21875 C 7.65625 -11.21875 8.53125 -11.054688 9.3125 -10.734375 C 10.101562 -10.410156 10.765625 -9.9375 11.296875 -9.3125 L 9.671875 -7.796875 C 8.878906 -8.628906 7.925781 -9.046875 6.8125 -9.046875 C 6.101562 -9.046875 5.472656 -8.898438 4.921875 -8.609375 C 4.378906 -8.316406 3.957031 -7.898438 3.65625 -7.359375 C 3.351562 -6.828125 3.203125 -6.210938 3.203125 -5.515625 C 3.203125 -4.835938 3.351562 -4.226562 3.65625 -3.6875 C 3.957031 -3.15625 4.378906 -2.738281 4.921875 -2.4375 C 5.460938 -2.132812 6.082031 -1.984375 6.78125 -1.984375 C 7.519531 -1.984375 8.179688 -2.140625 8.765625 -2.453125 Z M 8.765625 -5.6875 "/></g></g><g style="fill:#7ed957;fill-opacity:1;"><g transform="translate(185.627934, 19.596776)"><path style="stroke:none" d="M 1.3125 -11.03125 L 3.859375 -11.03125 L 3.859375 0 L 1.3125 0 Z M 1.3125 -11.03125 "/></g></g><g style="fill:#7ed957;fill-opacity:1;"><g transform="translate(190.798397, 19.596776)"><path style="stroke:none" d="M 4.9375 0.1875 C 4.0625 0.1875 3.21875 0.0703125 2.40625 -0.15625 C 1.59375 -0.394531 0.9375 -0.707031 0.4375 -1.09375 L 1.3125 -3.015625 C 1.78125 -2.660156 2.335938 -2.378906 2.984375 -2.171875 C 3.640625 -1.960938 4.296875 -1.859375 4.953125 -1.859375 C 5.671875 -1.859375 6.203125 -1.960938 6.546875 -2.171875 C 6.898438 -2.390625 7.078125 -2.679688 7.078125 -3.046875 C 7.078125 -3.304688 6.972656 -3.519531 6.765625 -3.6875 C 6.566406 -3.863281 6.304688 -4.003906 5.984375 -4.109375 C 5.660156 -4.210938 5.226562 -4.332031 4.6875 -4.46875 C 3.84375 -4.664062 3.148438 -4.863281 2.609375 -5.0625 C 2.078125 -5.257812 1.617188 -5.578125 1.234375 -6.015625 C 0.847656 -6.460938 0.65625 -7.050781 0.65625 -7.78125 C 0.65625 -8.425781 0.828125 -9.007812 1.171875 -9.53125 C 1.523438 -10.050781 2.050781 -10.460938 2.75 -10.765625 C 3.445312 -11.066406 4.300781 -11.21875 5.3125 -11.21875 C 6.019531 -11.21875 6.707031 -11.132812 7.375 -10.96875 C 8.050781 -10.800781 8.640625 -10.5625 9.140625 -10.25 L 8.359375 -8.3125 C 7.335938 -8.882812 6.316406 -9.171875 5.296875 -9.171875 C 4.578125 -9.171875 4.046875 -9.054688 3.703125 -8.828125 C 3.367188 -8.597656 3.203125 -8.296875 3.203125 -7.921875 C 3.203125 -7.535156 3.398438 -7.25 3.796875 -7.0625 C 4.191406 -6.882812 4.789062 -6.707031 5.59375 -6.53125 C 6.4375 -6.332031 7.125 -6.128906 7.65625 -5.921875 C 8.195312 -5.722656 8.65625 -5.40625 9.03125 -4.96875 C 9.414062 -4.539062 9.609375 -3.960938 9.609375 -3.234375 C 9.609375 -2.597656 9.429688 -2.019531 9.078125 -1.5 C 8.734375 -0.976562 8.207031 -0.566406 7.5 -0.265625 C 6.800781 0.0351562 5.945312 0.1875 4.9375 0.1875 Z M 4.9375 0.1875 "/></g></g><g style="fill:#7ed957;fill-opacity:1;"><g transform="translate(200.855572, 19.596776)"><path style="stroke:none" d="M 3.59375 -8.953125 L 0.0625 -8.953125 L 0.0625 -11.03125 L 9.6875 -11.03125 L 9.6875 -8.953125 L 6.15625 -8.953125 L 6.15625 0 L 3.59375 0 Z M 3.59375 -8.953125 "/></g></g><g style="fill:#7ed957;fill-opacity:1;"><g transform="translate(210.597477, 19.596776)"><path style="stroke:none" d="M 8.34375 0 L 6.21875 -3.078125 L 3.859375 -3.078125 L 3.859375 0 L 1.3125 0 L 1.3125 -11.03125 L 6.078125 -11.03125 C 7.054688 -11.03125 7.90625 -10.867188 8.625 -10.546875 C 9.351562 -10.222656 9.910156 -9.757812 10.296875 -9.15625 C 10.679688 -8.5625 10.875 -7.851562 10.875 -7.03125 C 10.875 -6.207031 10.675781 -5.5 10.28125 -4.90625 C 9.894531 -4.3125 9.335938 -3.859375 8.609375 -3.546875 L 11.078125 0 Z M 8.296875 -7.03125 C 8.296875 -7.65625 8.09375 -8.128906 7.6875 -8.453125 C 7.289062 -8.785156 6.707031 -8.953125 5.9375 -8.953125 L 3.859375 -8.953125 L 3.859375 -5.109375 L 5.9375 -5.109375 C 6.707031 -5.109375 7.289062 -5.273438 7.6875 -5.609375 C 8.09375 -5.941406 8.296875 -6.414062 8.296875 -7.03125 Z M 8.296875 -7.03125 "/></g></g><g style="fill:#7ed957;fill-opacity:1;"><g transform="translate(222.183722, 19.596776)"><path style="stroke:none" d="M 6.609375 -3.90625 L 6.609375 0 L 4.046875 0 L 4.046875 -3.9375 L -0.21875 -11.03125 L 2.484375 -11.03125 L 5.4375 -6.140625 L 8.390625 -11.03125 L 10.890625 -11.03125 Z M 6.609375 -3.90625 "/></g></g></g></svg>