<svg width="152" height="30" viewBox="0 0 144 22" fill="none" xmlns="http://www.w3.org/2000/svg">
<path d="M7.512 18.288C12.312 18.288 14.64 15.888 14.64 13.08C14.64 6.912 4.872 9.048 4.872 5.952C4.872 4.896 5.76 4.032 8.064 4.032C9.552 4.032 11.16 4.464 12.72 5.352L13.92 2.4C12.36 1.416 10.2 0.912 8.088 0.912C3.312 0.912 1.008 3.288 1.008 6.144C1.008 12.384 10.776 10.224 10.776 13.368C10.776 14.4 9.84 15.168 7.536 15.168C5.52 15.168 3.408 14.448 1.992 13.416L0.672 16.344C2.16 17.496 4.848 18.288 7.512 18.288ZM20.5423 18H24.4303V4.368H29.8063V1.2H15.1663V4.368H20.5423V18ZM43.6065 18H47.6865L40.1745 1.2H36.3345L28.8465 18H32.8305L34.3185 14.4H42.1185L43.6065 18ZM35.5665 11.448L38.2305 5.016L40.8945 11.448H35.5665ZM57.2351 18.288C60.1631 18.288 62.5871 17.232 64.1711 15.288L61.6751 12.984C60.5471 14.304 59.1311 14.976 57.4511 14.976C54.3071 14.976 52.0751 12.768 52.0751 9.6C52.0751 6.432 54.3071 4.224 57.4511 4.224C59.1311 4.224 60.5471 4.896 61.6751 6.192L64.1711 3.888C62.5871 1.968 60.1631 0.912 57.2591 0.912C52.0271 0.912 48.1391 4.536 48.1391 9.6C48.1391 14.664 52.0271 18.288 57.2351 18.288ZM78.2927 18H82.8287L75.4607 8.688L82.4207 1.2H78.1007L70.6607 9.048V1.2H66.7967V18H70.6607V13.752L72.9167 11.4L78.2927 18ZM100.393 17.736C99.6009 18.576 98.6889 18.984 97.6569 18.984C96.8169 18.984 96.0969 18.672 95.2809 17.808C98.8569 16.656 101.281 13.536 101.281 9.6C101.281 4.584 97.3689 0.912 92.0889 0.912C86.7849 0.912 82.8969 4.608 82.8969 9.6C82.8969 14.16 86.1369 17.64 90.7449 18.216C93.3369 20.952 95.0889 21.864 97.5849 21.864C99.4329 21.864 101.017 21.144 102.121 19.8L100.393 17.736ZM86.8329 9.6C86.8329 6.408 89.0889 4.224 92.0889 4.224C95.0889 4.224 97.3449 6.408 97.3449 9.6C97.3449 12.792 95.0889 14.976 92.0889 14.976C89.0889 14.976 86.8329 12.792 86.8329 9.6ZM104.203 18H116.515V14.832H108.091V1.2H104.203V18ZM118.183 3.696V6.672L126.175 9.6L118.183 12.504V15.504L129.607 11.16V8.04L118.183 3.696ZM132.551 3.696V6.672L140.543 9.6L132.551 12.504V15.504L143.975 11.16V8.04L132.551 3.696Z" fill="#0F4C81"/>
</svg>
