<svg xmlns="http://www.w3.org/2000/svg" xmlns:xlink="http://www.w3.org/1999/xlink" width="320" zoomAndPan="magnify" viewBox="0 0 240 30.000001" height="40" preserveAspectRatio="xMidYMid meet" version="1.2"><defs><clipPath id="c024d59819"><path d="M 4 6 L 139.597656 6 L 139.597656 26 L 4 26 Z M 4 6 "/></clipPath></defs><g id="a94e4a83c7"><path style="fill:none;stroke-width:2;stroke-linecap:butt;stroke-linejoin:miter;stroke:#ffffff;stroke-opacity:1;stroke-miterlimit:4;" d="M 0.000872918 0.997741 L 22.189773 0.997741 " transform="matrix(0.00000000125607,0.719673,-0.719673,0.00000000125607,146.136016,6.464216)"/><g clip-rule="nonzero" clip-path="url(#c024d59819)"><path style=" stroke:none;fill-rule:nonzero;fill:#ffffff;fill-opacity:1;" d="M 10.988281 22.628906 C 15.503906 22.628906 17.695312 20.367188 17.695312 17.726562 C 17.695312 11.917969 8.503906 13.929688 8.503906 11.015625 C 8.503906 10.023438 9.339844 9.207031 11.507812 9.207031 C 12.90625 9.207031 14.421875 9.613281 15.890625 10.449219 L 17.019531 7.671875 C 15.550781 6.746094 13.515625 6.269531 11.53125 6.269531 C 7.035156 6.269531 4.863281 8.507812 4.863281 11.195312 C 4.863281 17.070312 14.058594 15.035156 14.058594 17.996094 C 14.058594 18.96875 13.179688 19.691406 11.011719 19.691406 C 9.113281 19.691406 7.125 19.011719 5.792969 18.042969 L 4.550781 20.796875 C 5.949219 21.882812 8.480469 22.628906 10.988281 22.628906 Z M 23.253906 22.355469 L 26.910156 22.355469 L 26.910156 9.523438 L 31.972656 9.523438 L 31.972656 6.542969 L 18.191406 6.542969 L 18.191406 9.523438 L 23.253906 9.523438 Z M 44.960938 22.355469 L 48.800781 22.355469 L 41.730469 6.542969 L 38.117188 6.542969 L 31.070312 22.355469 L 34.820312 22.355469 L 36.21875 18.96875 L 43.5625 18.96875 Z M 37.394531 16.1875 L 39.902344 10.132812 L 42.410156 16.1875 Z M 57.789062 22.628906 C 60.546875 22.628906 62.828125 21.632812 64.320312 19.804688 L 61.96875 17.632812 C 60.90625 18.878906 59.574219 19.507812 57.992188 19.507812 C 55.035156 19.507812 52.933594 17.429688 52.933594 14.449219 C 52.933594 11.46875 55.035156 9.390625 57.992188 9.390625 C 59.574219 9.390625 60.90625 10.023438 61.96875 11.242188 L 64.320312 9.074219 C 62.828125 7.265625 60.546875 6.269531 57.8125 6.269531 C 52.886719 6.269531 49.230469 9.683594 49.230469 14.449219 C 49.230469 19.214844 52.886719 22.628906 57.789062 22.628906 Z M 77.613281 22.355469 L 81.882812 22.355469 L 74.945312 13.589844 L 81.496094 6.542969 L 77.429688 6.542969 L 70.429688 13.929688 L 70.429688 6.542969 L 66.789062 6.542969 L 66.789062 22.355469 L 70.429688 22.355469 L 70.429688 18.359375 L 72.550781 16.144531 Z M 98.414062 22.109375 C 97.667969 22.898438 96.808594 23.28125 95.839844 23.28125 C 95.046875 23.28125 94.371094 22.988281 93.601562 22.175781 C 96.96875 21.089844 99.25 18.152344 99.25 14.449219 C 99.25 9.726562 95.566406 6.269531 90.597656 6.269531 C 85.605469 6.269531 81.945312 9.75 81.945312 14.449219 C 81.945312 18.742188 84.996094 22.015625 89.332031 22.558594 C 91.773438 25.132812 93.421875 25.992188 95.769531 25.992188 C 97.511719 25.992188 99 25.316406 100.039062 24.050781 Z M 85.652344 14.449219 C 85.652344 11.445312 87.773438 9.390625 90.597656 9.390625 C 93.421875 9.390625 95.546875 11.445312 95.546875 14.449219 C 95.546875 17.453125 93.421875 19.507812 90.597656 19.507812 C 87.773438 19.507812 85.652344 17.453125 85.652344 14.449219 Z M 102 22.355469 L 113.589844 22.355469 L 113.589844 19.375 L 105.660156 19.375 L 105.660156 6.542969 L 102 6.542969 Z M 115.160156 8.890625 L 115.160156 11.691406 L 122.683594 14.449219 L 115.160156 17.183594 L 115.160156 20.007812 L 125.914062 15.917969 L 125.914062 12.980469 Z M 128.683594 8.890625 L 128.683594 11.691406 L 136.207031 14.449219 L 128.683594 17.183594 L 128.683594 20.007812 L 139.4375 15.917969 L 139.4375 12.980469 Z M 128.683594 8.890625 "/></g><g style="fill:#ffffff;fill-opacity:1;"><g transform="translate(151.310577, 19.596776)"><path style="stroke:none" d="M 8.34375 0 L 6.21875 -3.078125 L 3.859375 -3.078125 L 3.859375 0 L 1.3125 0 L 1.3125 -11.03125 L 6.078125 -11.03125 C 7.054688 -11.03125 7.90625 -10.867188 8.625 -10.546875 C 9.351562 -10.222656 9.910156 -9.757812 10.296875 -9.15625 C 10.679688 -8.5625 10.875 -7.851562 10.875 -7.03125 C 10.875 -6.207031 10.675781 -5.5 10.28125 -4.90625 C 9.894531 -4.3125 9.335938 -3.859375 8.609375 -3.546875 L 11.078125 0 Z M 8.296875 -7.03125 C 8.296875 -7.65625 8.09375 -8.128906 7.6875 -8.453125 C 7.289062 -8.785156 6.707031 -8.953125 5.9375 -8.953125 L 3.859375 -8.953125 L 3.859375 -5.109375 L 5.9375 -5.109375 C 6.707031 -5.109375 7.289062 -5.273438 7.6875 -5.609375 C 8.09375 -5.941406 8.296875 -6.414062 8.296875 -7.03125 Z M 8.296875 -7.03125 "/></g></g><g style="fill:#ffffff;fill-opacity:1;"><g transform="translate(162.896823, 19.596776)"><path style="stroke:none" d="M 9.859375 -2.046875 L 9.859375 0 L 1.3125 0 L 1.3125 -11.03125 L 9.65625 -11.03125 L 9.65625 -8.984375 L 3.84375 -8.984375 L 3.84375 -6.59375 L 8.96875 -6.59375 L 8.96875 -4.609375 L 3.84375 -4.609375 L 3.84375 -2.046875 Z M 9.859375 -2.046875 "/></g></g><g style="fill:#ffffff;fill-opacity:1;"><g transform="translate(173.474198, 19.596776)"><path style="stroke:none" d="M 8.765625 -5.6875 L 11.09375 -5.6875 L 11.09375 -1.21875 C 10.5 -0.757812 9.804688 -0.410156 9.015625 -0.171875 C 8.222656 0.0664062 7.429688 0.1875 6.640625 0.1875 C 5.492188 0.1875 4.460938 -0.0546875 3.546875 -0.546875 C 2.628906 -1.035156 1.910156 -1.710938 1.390625 -2.578125 C 0.867188 -3.441406 0.609375 -4.421875 0.609375 -5.515625 C 0.609375 -6.609375 0.867188 -7.585938 1.390625 -8.453125 C 1.910156 -9.328125 2.632812 -10.003906 3.5625 -10.484375 C 4.488281 -10.972656 5.53125 -11.21875 6.6875 -11.21875 C 7.65625 -11.21875 8.53125 -11.054688 9.3125 -10.734375 C 10.101562 -10.410156 10.765625 -9.9375 11.296875 -9.3125 L 9.671875 -7.796875 C 8.878906 -8.628906 7.925781 -9.046875 6.8125 -9.046875 C 6.101562 -9.046875 5.472656 -8.898438 4.921875 -8.609375 C 4.378906 -8.316406 3.957031 -7.898438 3.65625 -7.359375 C 3.351562 -6.828125 3.203125 -6.210938 3.203125 -5.515625 C 3.203125 -4.835938 3.351562 -4.226562 3.65625 -3.6875 C 3.957031 -3.15625 4.378906 -2.738281 4.921875 -2.4375 C 5.460938 -2.132812 6.082031 -1.984375 6.78125 -1.984375 C 7.519531 -1.984375 8.179688 -2.140625 8.765625 -2.453125 Z M 8.765625 -5.6875 "/></g></g><g style="fill:#ffffff;fill-opacity:1;"><g transform="translate(185.627934, 19.596776)"><path style="stroke:none" d="M 1.3125 -11.03125 L 3.859375 -11.03125 L 3.859375 0 L 1.3125 0 Z M 1.3125 -11.03125 "/></g></g><g style="fill:#ffffff;fill-opacity:1;"><g transform="translate(190.798397, 19.596776)"><path style="stroke:none" d="M 4.9375 0.1875 C 4.0625 0.1875 3.21875 0.0703125 2.40625 -0.15625 C 1.59375 -0.394531 0.9375 -0.707031 0.4375 -1.09375 L 1.3125 -3.015625 C 1.78125 -2.660156 2.335938 -2.378906 2.984375 -2.171875 C 3.640625 -1.960938 4.296875 -1.859375 4.953125 -1.859375 C 5.671875 -1.859375 6.203125 -1.960938 6.546875 -2.171875 C 6.898438 -2.390625 7.078125 -2.679688 7.078125 -3.046875 C 7.078125 -3.304688 6.972656 -3.519531 6.765625 -3.6875 C 6.566406 -3.863281 6.304688 -4.003906 5.984375 -4.109375 C 5.660156 -4.210938 5.226562 -4.332031 4.6875 -4.46875 C 3.84375 -4.664062 3.148438 -4.863281 2.609375 -5.0625 C 2.078125 -5.257812 1.617188 -5.578125 1.234375 -6.015625 C 0.847656 -6.460938 0.65625 -7.050781 0.65625 -7.78125 C 0.65625 -8.425781 0.828125 -9.007812 1.171875 -9.53125 C 1.523438 -10.050781 2.050781 -10.460938 2.75 -10.765625 C 3.445312 -11.066406 4.300781 -11.21875 5.3125 -11.21875 C 6.019531 -11.21875 6.707031 -11.132812 7.375 -10.96875 C 8.050781 -10.800781 8.640625 -10.5625 9.140625 -10.25 L 8.359375 -8.3125 C 7.335938 -8.882812 6.316406 -9.171875 5.296875 -9.171875 C 4.578125 -9.171875 4.046875 -9.054688 3.703125 -8.828125 C 3.367188 -8.597656 3.203125 -8.296875 3.203125 -7.921875 C 3.203125 -7.535156 3.398438 -7.25 3.796875 -7.0625 C 4.191406 -6.882812 4.789062 -6.707031 5.59375 -6.53125 C 6.4375 -6.332031 7.125 -6.128906 7.65625 -5.921875 C 8.195312 -5.722656 8.65625 -5.40625 9.03125 -4.96875 C 9.414062 -4.539062 9.609375 -3.960938 9.609375 -3.234375 C 9.609375 -2.597656 9.429688 -2.019531 9.078125 -1.5 C 8.734375 -0.976562 8.207031 -0.566406 7.5 -0.265625 C 6.800781 0.0351562 5.945312 0.1875 4.9375 0.1875 Z M 4.9375 0.1875 "/></g></g><g style="fill:#ffffff;fill-opacity:1;"><g transform="translate(200.855572, 19.596776)"><path style="stroke:none" d="M 3.59375 -8.953125 L 0.0625 -8.953125 L 0.0625 -11.03125 L 9.6875 -11.03125 L 9.6875 -8.953125 L 6.15625 -8.953125 L 6.15625 0 L 3.59375 0 Z M 3.59375 -8.953125 "/></g></g><g style="fill:#ffffff;fill-opacity:1;"><g transform="translate(210.597477, 19.596776)"><path style="stroke:none" d="M 8.34375 0 L 6.21875 -3.078125 L 3.859375 -3.078125 L 3.859375 0 L 1.3125 0 L 1.3125 -11.03125 L 6.078125 -11.03125 C 7.054688 -11.03125 7.90625 -10.867188 8.625 -10.546875 C 9.351562 -10.222656 9.910156 -9.757812 10.296875 -9.15625 C 10.679688 -8.5625 10.875 -7.851562 10.875 -7.03125 C 10.875 -6.207031 10.675781 -5.5 10.28125 -4.90625 C 9.894531 -4.3125 9.335938 -3.859375 8.609375 -3.546875 L 11.078125 0 Z M 8.296875 -7.03125 C 8.296875 -7.65625 8.09375 -8.128906 7.6875 -8.453125 C 7.289062 -8.785156 6.707031 -8.953125 5.9375 -8.953125 L 3.859375 -8.953125 L 3.859375 -5.109375 L 5.9375 -5.109375 C 6.707031 -5.109375 7.289062 -5.273438 7.6875 -5.609375 C 8.09375 -5.941406 8.296875 -6.414062 8.296875 -7.03125 Z M 8.296875 -7.03125 "/></g></g><g style="fill:#ffffff;fill-opacity:1;"><g transform="translate(222.183722, 19.596776)"><path style="stroke:none" d="M 6.609375 -3.90625 L 6.609375 0 L 4.046875 0 L 4.046875 -3.9375 L -0.21875 -11.03125 L 2.484375 -11.03125 L 5.4375 -6.140625 L 8.390625 -11.03125 L 10.890625 -11.03125 Z M 6.609375 -3.90625 "/></g></g></g></svg>