<?xml version="1.0" encoding="utf-8"?>
<!-- Generator: Adobe Illustrator 24.0.2, SVG Export Plug-In . SVG Version: 6.00 Build 0)  -->
<svg version="1.1" xmlns="http://www.w3.org/2000/svg" xmlns:xlink="http://www.w3.org/1999/xlink" x="0px" y="0px"
	 viewBox="0 0 712.8 113" style="enable-background:new 0 0 712.8 113;" xml:space="preserve">
<style type="text/css">
	.st0{fill:#F2F2F2;}
	.st1{fill:none;stroke:#808080;stroke-width:0.5;stroke-miterlimit:10;}
	.st2{fill:#EE3D2C;}
	.st3{fill:none;stroke:#EE3D2C;stroke-miterlimit:10;}
	.st4{fill:none;stroke:#221F1F;stroke-miterlimit:10;}
	.st5{fill:#FFFFFF;}
	.st6{fill:none;stroke:#000000;stroke-miterlimit:10;}
</style>
<g id="Alternative_Print_Lock-up">
</g>
<g id="Small_Scale_Lock-up">
	<g>
		<g>
			<g>
				<g>
					<g>
						<g>
							<g>
								<g>
								</g>
							</g>
						</g>
					</g>
				</g>
			</g>
		</g>
	</g>
</g>
<g id="Primary_Logo_Lock-up">
	<g>
		<polygon class="st2" points="98.9,46.6 52.3,72.9 2.4,44.8 0,46.1 0,66.5 52.3,95.9 98.9,69.7 98.9,80.5 52.3,106.8 2.4,78.7 
			0,80 0,83.5 52.3,112.9 104.5,83.5 104.5,63.1 102.1,61.8 52.3,89.8 5.6,63.6 5.6,52.8 52.3,79 104.5,49.6 104.5,29.5 101.9,28 
			52.3,55.9 8,31.1 52.3,6.2 88.7,26.7 91.9,24.9 91.9,22.4 52.3,0.1 0,29.5 0,32.7 52.3,62.1 98.9,35.8 		"/>
		<g>
			<g>
				<path d="M202.2,96.2V6.4h-13.8V40c0,0.5-0.3,0.9-0.8,1.1c-0.5,0.2-1,0-1.3-0.3c-4.7-5.5-12-8.6-20-8.6
					c-17.1,0-30.5,14.4-30.5,32.8c0,9,3.1,17.3,8.8,23.4c5.7,6.1,13.4,9.4,21.7,9.4c7.9,0,15.2-3.3,20-9c0.3-0.4,0.9-0.5,1.3-0.4
					c0.5,0.2,0.8,0.6,0.8,1.1v6.7H202.2z M169.3,85.3c-11,0-19.6-8.9-19.6-20.3s8.6-20.3,19.6-20.3c11,0,19.6,8.9,19.6,20.3
					S180.3,85.3,169.3,85.3z"/>
				<path d="M276,96.2V33.7h-13.7V40c0,0.5-0.3,0.9-0.8,1.1c-0.5,0.2-1,0-1.3-0.4c-4.6-5.5-11.8-8.6-20-8.6
					c-17.1,0-30.5,14.4-30.5,32.8s13.4,32.8,30.5,32.8c7.9,0,15.2-3.3,20-9.1c0.3-0.4,0.9-0.5,1.3-0.4c0.5,0.2,0.8,0.6,0.8,1.1v6.8
					H276z M243.3,85.3c-11,0-19.6-8.9-19.6-20.3s8.6-20.3,19.6-20.3c11,0,19.6,8.9,19.6,20.3S254.3,85.3,243.3,85.3z"/>
				<path d="M393.3,96.2V33.7h-13.7V40c0,0.5-0.3,0.9-0.8,1.1c-0.5,0.2-1,0-1.3-0.4c-4.6-5.5-11.8-8.6-20-8.6
					C340.3,32.1,327,46.5,327,65s13.4,32.8,30.5,32.8c7.9,0,15.2-3.3,20-9.1c0.3-0.4,0.9-0.5,1.3-0.4c0.5,0.2,0.8,0.6,0.8,1.1v6.8
					H393.3z M360.6,85.3c-11,0-19.6-8.9-19.6-20.3s8.6-20.3,19.6-20.3s19.6,8.9,19.6,20.3S371.6,85.3,360.6,85.3z"/>
				<path d="M418.4,88.8c0.1,0,0.3-0.1,0.4-0.1c0.3,0,0.7,0.2,0.9,0.4c4.7,5.5,12,8.6,20,8.6c17.1,0,30.5-14.4,30.5-32.8
					c0-9-3.1-17.3-8.8-23.4c-5.7-6.1-13.4-9.4-21.7-9.4c-7.9,0-15.2,3.3-20,9c-0.3,0.4-0.8,0.5-1.3,0.4c-0.5-0.2-0.8-0.6-0.8-1.1
					l0-34h-13.8l0,89.8h13.8v-6.3C417.6,89.4,417.9,89,418.4,88.8z M417,65c0-11.4,8.6-20.3,19.6-20.3s19.6,8.9,19.6,20.3
					s-8.6,20.3-19.6,20.3S417,76.3,417,65z"/>
				<path d="M510.1,46.5c1.3,0,2.5,0.1,3.3,0.3V32.6c-0.5-0.1-1.4-0.2-2.3-0.2c-7.2,0-13.8,3.7-17.3,9.6c-0.3,0.5-0.8,0.7-1.3,0.5
					c-0.5-0.1-0.9-0.6-0.9-1.1v-7.7h-13.7v62.6h13.8V68.7C491.7,55,498.7,46.5,510.1,46.5z"/>
				<rect x="522.1" y="33.7" width="14" height="62.6"/>
				<path d="M528.9,6.5c-4.7,0-8.5,3.8-8.5,8.5c0,4.7,3.8,8.5,8.5,8.5s8.5-3.8,8.5-8.5C537.4,10.3,533.6,6.5,528.9,6.5z"/>
				<path d="M577.1,32.1C557.9,32.1,544,45.9,544,65c0,9.3,3.3,17.6,9.2,23.6c6,6,14.4,9.3,23.8,9.3c7.8,0,13.8-1.5,25.2-9.9
					l-7.9-8.3c-5.6,3.7-10.8,5.5-15.9,5.5c-11.6,0-20.3-8.7-20.3-20.2s8.7-20.2,20.3-20.2c5.5,0,10.6,1.8,15.7,5.5l8.8-8.3
					C592.6,33.2,583.3,32.1,577.1,32.1z"/>
				<g>
					<path d="M626.5,68.7c0.2-0.2,0.5-0.3,0.8-0.3l0.1,0c0.3,0,0.6,0.2,0.9,0.4l22.1,27.4l17,0l-28.6-34.6c-0.4-0.5-0.4-1.2,0.1-1.6
						l26.3-26.3h-16.9l-22.7,22.8c-0.3,0.3-0.8,0.4-1.3,0.3c-0.4-0.2-0.7-0.6-0.7-1.1l0-49.2h-13.9l0,89.8h13.8V71.9
						c0-0.3,0.1-0.7,0.4-0.9L626.5,68.7z"/>
				</g>
				<g>
					<path d="M689.9,97.8c11.3,0,22.8-6.9,22.8-20c0-8.6-5.4-14.5-16.4-18.1l-7.5-2.5c-5.1-1.7-7.5-4.1-7.5-7.4
						c0-3.8,3.4-6.4,8.2-6.4c4.6,0,8.7,3,11.3,8.2l11.1-6c-4.1-8.4-12.6-13.6-22.4-13.6c-12.4,0-21.4,8-21.4,18.9
						c0,8.7,5.2,14.5,15.9,17.9l7.7,2.5c5.4,1.7,7.7,3.9,7.7,7.4c0,5.3-4.9,7.2-9.1,7.2c-5.6,0-10.6-3.6-13-9.5L666,82.4
						C669.7,91.9,678.8,97.8,689.9,97.8z"/>
				</g>
				<path d="M314.4,97.2c4.4,0,8.3-0.4,10.5-0.7l0-12c-1.8,0.2-5,0.4-6.9,0.4c-5.6,0-9.9-1-9.9-13.1V46.1c0-0.7,0.5-1.2,1.2-1.2
					h13.5l0-11.3l-13.5,0c-0.7,0-1.2-0.5-1.2-1.2V14.4l-13.8,0l0,18.1c0,0.7-0.5,1.2-1.2,1.2h-9.6l0,11.3l9.6,0
					c0.7,0,1.2,0.5,1.2,1.2v29.1C294.3,97.2,308.9,97.2,314.4,97.2z"/>
			</g>
		</g>
	</g>
</g>
<g id="Guide">
</g>
</svg>
